<svg width="16" height="16" viewBox="0 0 22 22" fill="none" xmlns="http://www.w3.org/2000/svg">
    <path d="M15 6.00047H6.99998C6.73477 6.00047 6.48041 6.10583 6.29288 6.29336C6.10534 6.4809 5.99998 6.73525 5.99998 7.00047V15.0005C5.99998 15.2657 6.10534 15.52 6.29288 15.7076C6.48041 15.8951 6.73477 16.0005 6.99998 16.0005H15C15.2652 16.0005 15.5196 15.8951 15.7071 15.7076C15.8946 15.52 16 15.2657 16 15.0005V7.00047C16 6.73525 15.8946 6.4809 15.7071 6.29336C15.5196 6.10583 15.2652 6.00047 15 6.00047ZM14 14.0005H7.99998V8.00047H14V14.0005ZM20 17.2805V4.72047C20.2704 4.57004 20.5023 4.35889 20.6773 4.10365C20.8523 3.84841 20.9657 3.55604 21.0085 3.24955C21.0514 2.94305 21.0225 2.6308 20.9242 2.33735C20.8259 2.0439 20.6608 1.77727 20.442 1.55844C20.2232 1.33961 19.9566 1.17455 19.6631 1.07624C19.3697 0.977937 19.0574 0.949071 18.7509 0.991917C18.4444 1.03476 18.152 1.14815 17.8968 1.32316C17.6416 1.49817 17.4304 1.73002 17.28 2.00047H4.71998C4.56955 1.73002 4.3584 1.49817 4.10317 1.32316C3.84793 1.14815 3.55556 1.03476 3.24906 0.991917C2.94257 0.949071 2.63031 0.977937 2.33686 1.07624C2.04342 1.17455 1.77679 1.33961 1.55795 1.55844C1.33912 1.77727 1.17406 2.0439 1.07575 2.33735C0.977448 2.6308 0.948583 2.94305 0.991428 3.24955C1.03427 3.55604 1.14766 3.84841 1.32267 4.10365C1.49768 4.35889 1.72953 4.57004 1.99998 4.72047V17.2805C1.72953 17.4309 1.49768 17.642 1.32267 17.8973C1.14766 18.1525 1.03427 18.4449 0.991428 18.7514C0.948583 19.0579 0.977448 19.3701 1.07575 19.6636C1.17406 19.957 1.33912 20.2237 1.55795 20.4425C1.77679 20.6613 2.04342 20.8264 2.33686 20.9247C2.63031 21.023 2.94257 21.0519 3.24906 21.009C3.55556 20.9662 3.84793 20.8528 4.10317 20.6778C4.3584 20.5028 4.56955 20.2709 4.71998 20.0005H17.28C17.4304 20.2709 17.6416 20.5028 17.8968 20.6778C18.152 20.8528 18.4444 20.9662 18.7509 21.009C19.0574 21.0519 19.3697 21.023 19.6631 20.9247C19.9566 20.8264 20.2232 20.6613 20.442 20.4425C20.6608 20.2237 20.8259 19.957 20.9242 19.6636C21.0225 19.3701 21.0514 19.0579 21.0085 18.7514C20.9657 18.4449 20.8523 18.1525 20.6773 17.8973C20.5023 17.642 20.2704 17.4309 20 17.2805ZM18 17.2805C17.6993 17.4509 17.4504 17.6997 17.28 18.0005H4.71998C4.54956 17.6997 4.30071 17.4509 3.99998 17.2805V4.72047C4.30071 4.55004 4.54956 4.3012 4.71998 4.00047H17.28C17.4504 4.3012 17.6993 4.55004 18 4.72047V17.2805Z" fill="black"/>
</svg>
